<mxfile host="app.diagrams.net" modified="2023-03-17T23:46:46.742Z" agent="5.0 (Macintosh; Intel Mac OS X 10_15_7) AppleWebKit/537.36 (KHTML, like Gecko) Chrome/111.0.0.0 Safari/537.36" etag="P0cclOYU-5qE-nONknBg" version="21.0.7" type="github">
  <diagram name="Trang-1" id="oQ7Q2U69AbRuAxu6SCVH">
    <mxGraphModel dx="2448" dy="2026" grid="1" gridSize="10" guides="1" tooltips="1" connect="1" arrows="1" fold="1" page="1" pageScale="1" pageWidth="827" pageHeight="1169" math="0" shadow="0">
      <root>
        <mxCell id="0" />
        <mxCell id="1" parent="0" />
        <mxCell id="2QQNMFbDvAQSub1k52Ly-6" style="edgeStyle=orthogonalEdgeStyle;rounded=0;orthogonalLoop=1;jettySize=auto;html=1;" edge="1" parent="1" source="2QQNMFbDvAQSub1k52Ly-1" target="2QQNMFbDvAQSub1k52Ly-3">
          <mxGeometry relative="1" as="geometry" />
        </mxCell>
        <mxCell id="2QQNMFbDvAQSub1k52Ly-7" value="1. User clicked for tutorial requestl" style="edgeLabel;html=1;align=center;verticalAlign=middle;resizable=0;points=[];" vertex="1" connectable="0" parent="2QQNMFbDvAQSub1k52Ly-6">
          <mxGeometry x="0.0757" relative="1" as="geometry">
            <mxPoint x="-1" y="20" as="offset" />
          </mxGeometry>
        </mxCell>
        <mxCell id="2QQNMFbDvAQSub1k52Ly-1" value="Mobile&amp;nbsp;" style="rounded=1;whiteSpace=wrap;html=1;" vertex="1" parent="1">
          <mxGeometry x="340" y="500" width="120" height="60" as="geometry" />
        </mxCell>
        <mxCell id="2QQNMFbDvAQSub1k52Ly-30" value="8. SB Tactics return tutorial to user" style="edgeStyle=orthogonalEdgeStyle;rounded=0;orthogonalLoop=1;jettySize=auto;html=1;entryX=0.875;entryY=-0.042;entryDx=0;entryDy=0;entryPerimeter=0;" edge="1" parent="1" source="2QQNMFbDvAQSub1k52Ly-2" target="2QQNMFbDvAQSub1k52Ly-3">
          <mxGeometry x="-0.4086" y="40" relative="1" as="geometry">
            <mxPoint as="offset" />
          </mxGeometry>
        </mxCell>
        <mxCell id="2QQNMFbDvAQSub1k52Ly-2" value="Hung&#39;s SB Tactics" style="rounded=1;whiteSpace=wrap;html=1;" vertex="1" parent="1">
          <mxGeometry x="430" y="-100" width="120" height="60" as="geometry" />
        </mxCell>
        <mxCell id="2QQNMFbDvAQSub1k52Ly-12" value="2. Check if user register Riot Id, and exceed limit daily 5 game / day" style="edgeStyle=orthogonalEdgeStyle;rounded=0;orthogonalLoop=1;jettySize=auto;html=1;" edge="1" parent="1" source="2QQNMFbDvAQSub1k52Ly-3">
          <mxGeometry x="-0.6471" y="190" relative="1" as="geometry">
            <mxPoint x="140" y="130" as="targetPoint" />
            <mxPoint as="offset" />
          </mxGeometry>
        </mxCell>
        <mxCell id="2QQNMFbDvAQSub1k52Ly-13" style="edgeStyle=orthogonalEdgeStyle;rounded=0;orthogonalLoop=1;jettySize=auto;html=1;" edge="1" parent="1" source="2QQNMFbDvAQSub1k52Ly-3">
          <mxGeometry relative="1" as="geometry">
            <mxPoint x="620" y="330" as="targetPoint" />
          </mxGeometry>
        </mxCell>
        <mxCell id="2QQNMFbDvAQSub1k52Ly-14" value="3. If checking with db succesfully, check to Riot if anygame is happening" style="edgeLabel;html=1;align=center;verticalAlign=middle;resizable=0;points=[];" vertex="1" connectable="0" parent="2QQNMFbDvAQSub1k52Ly-13">
          <mxGeometry x="-0.2619" relative="1" as="geometry">
            <mxPoint x="35" y="20" as="offset" />
          </mxGeometry>
        </mxCell>
        <mxCell id="2QQNMFbDvAQSub1k52Ly-15" style="edgeStyle=orthogonalEdgeStyle;rounded=0;orthogonalLoop=1;jettySize=auto;html=1;" edge="1" parent="1" source="2QQNMFbDvAQSub1k52Ly-3">
          <mxGeometry relative="1" as="geometry">
            <mxPoint x="390" y="490" as="targetPoint" />
          </mxGeometry>
        </mxCell>
        <mxCell id="2QQNMFbDvAQSub1k52Ly-16" value="5.2. Return error for any condition (Not register Riot Id, exceed limit or no game is happening)" style="edgeLabel;html=1;align=center;verticalAlign=middle;resizable=0;points=[];" vertex="1" connectable="0" parent="2QQNMFbDvAQSub1k52Ly-15">
          <mxGeometry x="0.6286" y="4" relative="1" as="geometry">
            <mxPoint as="offset" />
          </mxGeometry>
        </mxCell>
        <mxCell id="2QQNMFbDvAQSub1k52Ly-22" value="5. 1. Check if any user history is stored on db with 30 mins threshold" style="edgeStyle=orthogonalEdgeStyle;rounded=0;orthogonalLoop=1;jettySize=auto;html=1;entryX=0;entryY=0.5;entryDx=0;entryDy=0;entryPerimeter=0;" edge="1" parent="1" source="2QQNMFbDvAQSub1k52Ly-3" target="2QQNMFbDvAQSub1k52Ly-4">
          <mxGeometry x="0.4706" y="90" relative="1" as="geometry">
            <mxPoint as="offset" />
          </mxGeometry>
        </mxCell>
        <mxCell id="2QQNMFbDvAQSub1k52Ly-28" style="edgeStyle=orthogonalEdgeStyle;rounded=0;orthogonalLoop=1;jettySize=auto;html=1;entryX=0;entryY=0.25;entryDx=0;entryDy=0;" edge="1" parent="1" source="2QQNMFbDvAQSub1k52Ly-3" target="2QQNMFbDvAQSub1k52Ly-2">
          <mxGeometry relative="1" as="geometry" />
        </mxCell>
        <mxCell id="2QQNMFbDvAQSub1k52Ly-29" value="7. Send all collected data&amp;nbsp;" style="edgeLabel;html=1;align=center;verticalAlign=middle;resizable=0;points=[];" vertex="1" connectable="0" parent="2QQNMFbDvAQSub1k52Ly-28">
          <mxGeometry x="0.0119" relative="1" as="geometry">
            <mxPoint y="1" as="offset" />
          </mxGeometry>
        </mxCell>
        <mxCell id="2QQNMFbDvAQSub1k52Ly-32" style="edgeStyle=orthogonalEdgeStyle;rounded=0;orthogonalLoop=1;jettySize=auto;html=1;" edge="1" parent="1" source="2QQNMFbDvAQSub1k52Ly-3">
          <mxGeometry relative="1" as="geometry">
            <mxPoint x="-20" y="690" as="targetPoint" />
          </mxGeometry>
        </mxCell>
        <mxCell id="2QQNMFbDvAQSub1k52Ly-3" value="Backend" style="rounded=1;whiteSpace=wrap;html=1;" vertex="1" parent="1">
          <mxGeometry x="80" y="300" width="120" height="60" as="geometry" />
        </mxCell>
        <mxCell id="2QQNMFbDvAQSub1k52Ly-41" style="edgeStyle=orthogonalEdgeStyle;rounded=0;orthogonalLoop=1;jettySize=auto;html=1;" edge="1" parent="1" source="2QQNMFbDvAQSub1k52Ly-4">
          <mxGeometry relative="1" as="geometry">
            <mxPoint x="720" y="270" as="targetPoint" />
          </mxGeometry>
        </mxCell>
        <mxCell id="2QQNMFbDvAQSub1k52Ly-42" value="6. Query for user history out of threshold, update back to db" style="edgeLabel;html=1;align=center;verticalAlign=middle;resizable=0;points=[];" vertex="1" connectable="0" parent="2QQNMFbDvAQSub1k52Ly-41">
          <mxGeometry x="0.0672" y="3" relative="1" as="geometry">
            <mxPoint y="-17" as="offset" />
          </mxGeometry>
        </mxCell>
        <mxCell id="2QQNMFbDvAQSub1k52Ly-4" value="DB&lt;br&gt;" style="shape=cylinder3;whiteSpace=wrap;html=1;boundedLbl=1;backgroundOutline=1;size=15;" vertex="1" parent="1">
          <mxGeometry x="100" y="40" width="60" height="80" as="geometry" />
        </mxCell>
        <mxCell id="2QQNMFbDvAQSub1k52Ly-21" value="4. Return current game information if requested game is happening or not" style="edgeStyle=orthogonalEdgeStyle;rounded=0;orthogonalLoop=1;jettySize=auto;html=1;" edge="1" parent="1" source="2QQNMFbDvAQSub1k52Ly-5">
          <mxGeometry x="-0.0952" y="-20" relative="1" as="geometry">
            <mxPoint x="210" y="320" as="targetPoint" />
            <mxPoint as="offset" />
          </mxGeometry>
        </mxCell>
        <mxCell id="2QQNMFbDvAQSub1k52Ly-5" value="Riot" style="rounded=1;whiteSpace=wrap;html=1;" vertex="1" parent="1">
          <mxGeometry x="630" y="290" width="120" height="60" as="geometry" />
        </mxCell>
        <mxCell id="2QQNMFbDvAQSub1k52Ly-34" style="edgeStyle=orthogonalEdgeStyle;rounded=0;orthogonalLoop=1;jettySize=auto;html=1;" edge="1" parent="1" source="2QQNMFbDvAQSub1k52Ly-33">
          <mxGeometry relative="1" as="geometry">
            <mxPoint x="420" y="570" as="targetPoint" />
          </mxGeometry>
        </mxCell>
        <mxCell id="2QQNMFbDvAQSub1k52Ly-33" value="9. Return all data information from SB Tactics to mobile, start couting for exceed limit" style="text;html=1;align=center;verticalAlign=middle;resizable=0;points=[];autosize=1;strokeColor=none;fillColor=none;" vertex="1" parent="1">
          <mxGeometry x="-255" y="700" width="470" height="30" as="geometry" />
        </mxCell>
        <mxCell id="2QQNMFbDvAQSub1k52Ly-37" style="edgeStyle=orthogonalEdgeStyle;rounded=0;orthogonalLoop=1;jettySize=auto;html=1;" edge="1" parent="1" source="2QQNMFbDvAQSub1k52Ly-36">
          <mxGeometry relative="1" as="geometry">
            <mxPoint x="-325" y="50" as="targetPoint" />
          </mxGeometry>
        </mxCell>
        <mxCell id="2QQNMFbDvAQSub1k52Ly-36" value="Cronjob to check win/lose rate on user used Sb Tactics" style="ellipse;whiteSpace=wrap;html=1;aspect=fixed;" vertex="1" parent="1">
          <mxGeometry x="-400" y="300" width="150" height="150" as="geometry" />
        </mxCell>
        <mxCell id="2QQNMFbDvAQSub1k52Ly-39" style="edgeStyle=orthogonalEdgeStyle;rounded=0;orthogonalLoop=1;jettySize=auto;html=1;" edge="1" parent="1" source="2QQNMFbDvAQSub1k52Ly-38">
          <mxGeometry relative="1" as="geometry">
            <mxPoint x="110" y="35" as="targetPoint" />
          </mxGeometry>
        </mxCell>
        <mxCell id="2QQNMFbDvAQSub1k52Ly-38" value="10. Check win/lose rate on SB Tactics" style="text;html=1;align=center;verticalAlign=middle;resizable=0;points=[];autosize=1;strokeColor=none;fillColor=none;" vertex="1" parent="1">
          <mxGeometry x="-430" y="20" width="220" height="30" as="geometry" />
        </mxCell>
      </root>
    </mxGraphModel>
  </diagram>
</mxfile>
